<?xml version="1.0" encoding="utf-8"?>
<!-- Designed by Vexels.com - 2020 All Rights Reserved - https://vexels.com/terms-and-conditions/  -->
<svg version="1.1" id="Capa_1" xmlns="http://www.w3.org/2000/svg" xmlns:xlink="http://www.w3.org/1999/xlink" x="0px" y="0px"
	 viewBox="0 0 1200 1200" enable-background="new 0 0 1200 1200" xml:space="preserve">
<g>
	<path d="M93.682,795.424c0.086-0.283,0.162-0.568,0.249-0.851c1.577-5.139,3.28-10.227,5.037-15.292
		c-3.29,1.902-6.988,3.31-10.073,4.56c-6.403,2.594-13.047,4.468-19.735,6.165c-1.125,7.323-2.023,14.679-2.905,22.044
		c3.527-1.815,6.981-3.768,10.301-5.906c5.497-3.539,10.411-9.939,17.023-10.722C93.616,795.417,93.646,795.427,93.682,795.424z"/>
	<path d="M279.652,989.812c-8.95,0.599-17.902,0.997-26.749,1.364c-24.479,1.016-49.016,2.408-73.504,3.062
		c-10.879,0.29-21.505-0.217-32.212-2.086c-11.02-1.923-22.747-0.022-33.891,0.154c-0.443,0.007-0.861,0.014-1.286,0.021
		c2.074,3.298,1.491,7.76-0.494,12.508c-2.573,6.153-4.002,8.095,3.853,8.924c4.886,0.516,9.82,0.476,14.714,0.953
		c32.31,3.151,65.351,1.758,97.786,1.642c25.728-0.092,51.141-0.652,76.451-4.003c-4.1-2.217-7.844-5.983-10.912-8.877
		C288.705,999.039,284.161,994.443,279.652,989.812z"/>
	<path d="M72.727,930.016c-6.985,4.904-14.904,8.869-22.255,10.669c-0.204,5.866-0.358,11.736-0.471,17.615
		c-0.025,1.321,9.692,19.244,16.102,26.235c3.018,3.291,6.364,6.621,10.284,8.883c-0.785-0.758-1.352-1.834-1.481-3.254
		C73.088,970.088,72.35,950.015,72.727,930.016z"/>
	<path d="M301.134,987.863c-3.534,0.426-7.082,0.782-10.637,1.102c2.509,2.376,5.055,4.711,7.695,6.932
		c4.674,3.932,11.327,7.296,14.979,12.127c0.646,0.855,0.732,1.935,0.457,2.951c3.465-0.558,6.929-1.169,10.391-1.849
		c-2.485-1.94-4.7-4.093-6.116-5.31C312.051,998.792,306.501,993.406,301.134,987.863z"/>
	<path d="M58.66,867.618c-0.357,0.359-0.732,0.608-1.112,0.807c-1.337,7.873-2.569,15.766-3.545,23.71
		c2.825-1.507,5.633-3.06,8.329-4.844c4.637-3.068,9.172-6.869,14.053-9.774c0.983-8.061,2.161-16.099,3.543-24.11
		c-2.157,1.203-4.403,2.281-6.378,3.462C68.286,860.018,63.009,863.252,58.66,867.618z"/>
	<path d="M80.552,815.393c-5.031,3.105-10.262,5.763-15.692,7.986c-0.315,2.438-0.641,4.875-0.994,7.31
		c-1.192,8.234-2.609,16.419-4.042,24.6c2.445-1.905,5.03-3.637,7.684-5.248c4.369-2.653,9.364-6.466,14.459-7.744
		c2.154-10.956,4.719-21.85,7.652-32.68C86.501,811.923,83.037,813.86,80.552,815.393z"/>
	<path d="M320.362,984.669c-1.246,0.355-2.515,0.674-3.83,0.911c-1.531,0.275-3.076,0.506-4.616,0.753
		c3.21,3.193,6.47,6.335,9.848,9.345c2.952,2.63,5.983,5.27,9.341,7.378c1.731,1.086,3.891,1.749,5.203,3.335
		c3.104-0.845,6.519-1.965,9.443-3.415c-8.231-3.54-13.535-12.505-22.382-15.335C321.704,987.108,320.751,985.966,320.362,984.669z"
		/>
	<path d="M74.974,890.425c-3.296,2.237-6.718,4.273-9.786,6.163c-3.656,2.252-7.967,5.089-12.429,6.905
		c-0.858,9.069-1.448,18.144-1.877,27.229c8.05-3.36,14.867-8.831,22.232-13.335C73.5,908.379,74.115,899.39,74.974,890.425z"/>
	<path d="M454.272,569.428c-9.67-2.294-21.282-4.566-26.913,5.755c-6.893,12.635-3.44,28.498-2.962,42.157
		c0.174,4.961,0.088,9.923-0.557,14.742c10.937-4.102,36.724-2.796,37.373-1.868c3.849-0.736,7.718-1.06,11.565-0.963
		c0.412-8.85,2.94-17.923,3.607-26.783c0.751-9.971,0.815-19.987,1.76-29.934C470.09,573.487,462.267,571.325,454.272,569.428z
		 M454.616,617.216c-10.779,4.754-24.101,1.106-27.164-11.136c-2.865-11.452,3.597-24.579,14.731-28.457
		c0.441-0.154,0.853-0.207,1.238-0.193c5.197-1.877,9.515-2.618,14.978,0.094c4.815,2.39,8.241,6.717,9.622,11.9
		C470.942,600.385,464.926,612.669,454.616,617.216z"/>
	<path d="M353.604,606.532c-6.198-2.83-13.845-3.215-20.53-3.559c-27.714-1.429-56.276,2.065-83.636,6.789
		c-10.137,14.946-17.5,31.382-25.857,47.363c-8.652,16.544-19.036,29.959-32.022,43.256c-12.212,12.504-17.438,29.32-25.027,44.663
		c-8.376,16.932-16.943,33.452-24.435,50.817c-7.699,17.844-15.457,35.096-19.761,54.139c-3.817,16.889-6.504,33.964-10.731,50.763
		c-4.071,16.179-7.795,34.408,11.528,41.329c13.439,4.812,28.651,3.89,42.681,3.852c18.985-0.052,38.024-2.282,56.942-2.155
		c11.623,0.078,27.985,4.674,38.778-1.656c-0.16-1.346,0.166-2.816,1.235-4.306c3.579-4.99,6.527-15.963,9.275-23.824
		c5.849-16.729,11.233-33.623,16.532-50.533c23.354-74.524,46.038-149.784,63.769-225.874c1.289-5.531,2.538-11.076,3.619-16.652
		c0.416-2.146,0.816-4.297,1.15-6.458c0.378-2.447,0.302-0.211,0.351-2.988C357.513,608.771,357.725,608.414,353.604,606.532z
		 M169.068,760.951c18.709-19.188,44.964-34.707,69.846-44.416c3.557-1.388,6.845,4.168,3.813,6.55
		c-21.217,16.665-47.232,25.578-67.306,44.218C171.188,771.233,165.016,765.106,169.068,760.951z M131.218,864.933
		c17.356-11.161,34.151-23.142,51.153-34.827c16.107-11.07,32.501-23.215,50.6-30.807c4.377-1.836,5.946,4.615,2.927,6.942
		c-15.787,12.17-33.426,22.302-49.959,33.463c-16.592,11.201-33.231,22.321-50.338,32.726
		C130.795,875.352,126.542,867.94,131.218,864.933z M240.816,843.976c-18.543,11.509-37.907,21.603-56.315,33.42
		c-16.508,10.597-32.675,24.867-51.029,31.965c-4.215,1.63-7.132-5.442-3.066-7.273c18.69-8.415,35.16-23.452,52.316-34.638
		c17.31-11.287,35.552-23.591,55.261-30.197C242.075,835.882,244.232,841.855,240.816,843.976z M245.688,760.15
		c-16.329,11.861-34.933,20.645-52.206,31.048c-14.557,8.767-30.176,16.396-42.365,28.475c-3.592,3.56-9.039-1.905-5.542-5.542
		c11.742-12.212,26.712-20.347,40.923-29.276c17.912-11.255,36.207-22.339,55.691-30.692
		C246.277,752.41,249.345,757.493,245.688,760.15z M277.535,667.28c-10.251,8.557-22.722,14.451-34.305,20.978
		c-12.398,6.987-24.492,14.404-35.874,22.963c-4.055,3.049-9.342-3.905-5.407-7.007c21.283-16.774,46.446-33.6,71.832-43.383
		C277.332,659.462,280.428,664.864,277.535,667.28z"/>
	<path d="M193.725,404.687c0-0.001-0.001-0.002-0.001-0.004c-0.128-0.017-0.256-0.034-0.384-0.052l0.393,0.083
		C193.71,404.699,193.7,404.688,193.725,404.687z"/>
	<path d="M444.533,584.041c-6.193,4.171-10.678,11.624-9.188,19.269c1.601,8.217,10.953,9.215,17.301,5.384
		c5.779-3.488,9.091-11.55,6.607-18.013C456.9,584.563,450.271,583.958,444.533,584.041z"/>
	<path d="M523.369,399.426c-1.927-0.11-3.311-1.013-4.16-2.283c-38.582,1.103-77.474,0.604-116.073,0.722
		c-41.24,0.126-82.771,1.014-123.979-0.764c-4.404,9.146-6.822,25.959,5.167,30.836c6.931,2.82,19.034,0.057,26.476-0.363
		c8.169-0.461,27.606,1.222,27.885,2.658c2.94,0.023,5.878,0.041,8.81,0.038c20.226-0.02,40.452-0.04,60.678-0.061
		c20.226-0.02,40.452-0.041,60.678-0.061c18.685-0.019,38.819-2.107,57.279,1.106c0.223-0.281,0.479-0.55,0.799-0.791
		c4.411-3.323,3.629-10.578,3.465-15.581C530.183,408.449,528.222,403.268,523.369,399.426z M297.709,410.258
		c-4.617-0.189-4.608-3.045,0-3.233c30.633-1.255,62.364-0.548,93.103-0.345c30.978,0.204,62.193-0.104,93.103,0.888
		c3.067,0.098,3.061,2.048,0,2.147c-30.91,0.992-62.126,0.684-93.103,0.888C360.074,410.806,328.341,411.514,297.709,410.258z
		 M493.873,423.135c-18.562,1.563-37.612,0.447-56.26,0.455c-18.734,0.008-37.541,0.516-56.26-0.106
		c-4.117-0.137-4.11-5.149,0-5.286c18.721-0.622,37.525-0.114,56.26-0.106c18.64,0.008,37.706-1.108,56.26,0.455
		C497.441,418.849,497.434,422.836,493.873,423.135z"/>
	<path d="M334.113,977.324c-1.263,1.091-2.612,2.084-4.028,2.992c3.627,1.622,6.946,3.855,10.043,6.398
		c4.066,3.339,8.735,7.046,11.513,11.566c0.026,0.042,0.029,0.088,0.053,0.131c1.754-2.521,1.725-5.603-1.592-9.36
		C345.534,983.878,338.607,982.307,334.113,977.324z"/>
	<path d="M173.748,221.918c-0.888-5.772-1.652-11.633-1.62-17.407c0.003-0.499,0.078-0.948,0.186-1.371
		c-2.851-2.27-4.887-6.457-6.275-9.216c-1.721-3.421-3.535-6.99-4.77-10.684c-4.412,2.244-7.821,7.495-10.061,11.319
		c-1.793,3.061-3.227,6.235-4.392,9.583c-0.512,1.469-0.9,3.031-1.55,4.434c-0.066,4.753-0.435,9.469-0.307,14.231
		C154.544,222.79,164.166,222.327,173.748,221.918z"/>
	<path d="M570.787,291.787c8.897-0.159,17.796,0.523,26.693,0.675c19.846,0.341,39.834,0.192,59.648-1.055
		c15.979-1.006,51.681,0.387,52.719-21.609c0.448-9.512-0.667-19.393-1.44-28.938c-26.277,0.471-52.695-0.021-78.987-0.143
		c-25.108-0.117-51.185,1.845-76.28-0.248c-0.12,3.037-0.223,6.041-0.245,8.977c-0.1,13.005,1.143,26.93-0.694,39.912
		C557.671,292.598,564.583,291.898,570.787,291.787z"/>
	<path d="M219.974,282.598c-2.13,8.602-3.419,17.868-6.156,26.381c8.863-0.135,17.726-0.245,26.589-0.342
		c-0.558-1.807,12.473-37.835,13.808-55.228c0.128-1.665,0.931-2.866,2.01-3.629c-9.751-0.096-19.5-0.225-29.249-0.372
		c0.248,0.769,0.342,1.629,0.177,2.585C225.379,262.299,222.486,272.451,219.974,282.598z"/>
	<path d="M187.837,249.168c-1.539,11.326-3.484,22.597-6.125,33.721c-2.03,8.552-3.478,18.742-7.753,26.704
		c10.018-0.149,20.036-0.304,30.054-0.462c0.416-9.245,3.347-18.581,5.503-27.501c2.6-10.756,5.048-21.631,8.106-32.262
		c0.011-0.038,0.029-0.066,0.04-0.103c-9.937-0.169-19.872-0.382-29.806-0.62C187.851,248.819,187.862,248.987,187.837,249.168z"/>
	<path d="M1115.126,208.241c-0.105-0.537-0.156-1.105-0.076-1.738c1.543-12.234-20.463-13.153-28.779-13.973
		c-4.821-0.475-9.681-0.99-14.513-1.312c-4.709-0.315-8.484-1.158-11.595,2.862c-1.219,1.576-1.664,4.535-2.14,6.406
		c-0.729,2.865-1.077,5.781-1.445,8.701c12.73-0.017,25.459-0.217,38.187-0.387C1101.372,208.71,1108.275,208.259,1115.126,208.241z
		"/>
	<path d="M629.42,232.035c26.091-0.121,52.306-0.603,78.385-0.15c-0.184-3.28-0.353-6.562-0.526-9.844
		c-0.552,0.412-1.155,0.736-1.787,0.91c-0.878,0.241-1.709,0.249-2.484,0.1c-6.121,2.052-12.752,1.107-19.213,1.089
		c-6.395-0.018-12.791-0.019-19.186-0.028c-14.07-0.02-28.14-0.041-42.21-0.061c-14.07-0.02-28.141,0.008-42.21-0.106
		c-8.592-0.07-17.908,0.772-26.574-0.708c0.019,2.998-0.048,6.012-0.152,9.019C578.457,230.205,604.421,232.151,629.42,232.035z"/>
	<path d="M180.165,367.419c0.729-7.446,3.794-15.105,5.355-22.28c1.772-8.144,3.411-16.313,4.914-24.509
		c-33.916-0.503-67.832-0.917-101.728-0.462c0.004,0.924-0.011,1.846-0.004,2.77c0.115,14.898-0.068,30.242,3.467,44.804
		C121.493,367.883,150.827,367.696,180.165,367.419z"/>
	<path d="M273.569,308.435c0.049-0.215,0.075-0.422,0.152-0.645c6.492-18.923,13.482-37.605,18.446-57.014
		c0.068-0.265,0.167-0.493,0.263-0.725c-10.054-0.049-20.106-0.127-30.158-0.216c0.929,0.761,1.543,1.942,1.493,3.575
		c-0.598,19.37-8.574,36.532-12.992,55.111C258.371,308.458,265.97,308.438,273.569,308.435z"/>
	<path d="M319.113,321.332c-8.029,0.099-16.058,0.166-24.086,0.2c-0.027,0.21-0.045,0.417-0.103,0.638
		c-3.905,14.875-7.523,29.841-12.611,44.364c7.158-0.03,14.316-0.05,21.473-0.051C308.384,351.268,315.17,336.787,319.113,321.332z"
		/>
	<path d="M286.061,321.564c-1.736,0.003-3.472,0.019-5.207,0.019c-5.888,0-11.777-0.038-17.666-0.072
		c0.01,0.167,0.035,0.322,0.027,0.501c-0.626,15.516-6.059,29.909-10.188,44.702c6.209-0.051,12.417-0.088,18.625-0.125
		C277.238,351.833,281.693,336.719,286.061,321.564z"/>
	<path d="M243.724,365.707c4.131-14.393,9.471-28.702,10.809-43.696c0.017-0.194,0.066-0.367,0.102-0.547
		c-7.434-0.061-14.868-0.139-22.302-0.233c-1.7,9.184-4.285,18.27-6.387,27.374c-1.384,5.992-2.291,12.385-4.045,18.397
		c7.055-0.072,14.111-0.136,21.166-0.2C243.229,366.41,243.451,366.045,243.724,365.707z"/>
	<path d="M194.031,347.485c-1.383,6.193-2.4,13.682-5.141,19.85c7.825-0.078,15.649-0.155,23.474-0.235
		c0.661-7.055,2.955-14.262,4.48-21.004c1.881-8.313,3.61-16.83,6.145-24.994c-8.029-0.111-16.058-0.225-24.087-0.345
		C197.513,329.705,196.005,338.646,194.031,347.485z"/>
	<path d="M285.153,308.475c6.771,0.031,13.542,0.059,20.312,0.16c2.197,0.033,4.391,0.062,6.588,0.095
		c-0.104-0.642-0.077-1.351,0.121-2.119c4.895-18.97,14.767-36.253,18.893-55.526c0.073-0.342,0.188-0.636,0.322-0.907
		c-10.121-0.016-20.242-0.05-30.363-0.091c0.456,0.9,0.638,1.984,0.349,3.228C297.025,272.039,291.241,290.262,285.153,308.475z"/>
	<path d="M687.098,390.687c-1.647-0.144-3.327-0.17-5.011-0.076c-13.333,0.742-26.916,9.738-27.571,24.144
		c-0.583,12.837,9.631,20.195,21.086,21.935c0.417-0.4,0.959-0.709,1.663-0.854c3.643-0.747,7.202-1.831,10.522-3.29
		C686.908,418.674,686.635,404.57,687.098,390.687z"/>
	<path d="M695.099,392.524c0.56,11.743,1.216,24.032,0.014,35.807c5.194-3.9,9.078-9.294,10.547-16.609
		C707.662,401.756,702.597,395.465,695.099,392.524z"/>
	<path d="M969.517,377.322c-35.727,0.013-71.453,0.026-107.18,0.039c-16.329,0.006-32.658,0.011-48.987,0.018
		c0.018,0.133,0.061,0.258,0.066,0.395c0.235,7.422-1.327,14.629-0.877,22.162c0.413,6.918,1.593,13.759,1.627,20.678
		c0.052,10.62,0.885,21.666-1.402,31.862c0.354,4.778,0.541,9.586,0.417,14.37c20.718-9.122,46.798-2.529,68.567-2.295
		c11.623,0.125,23.228,0.911,34.851,1.008c5.59,0.047,11.217-0.002,16.78-0.592c3.895-0.413,8.003-1.852,12.005-2.475
		c0.532-2.02,1.362-4.013,2.343-5.668c0.195-1.71,1.206-3.282,3.047-3.548c8.384-1.212,17.124-0.282,25.409-1.744
		c7.109-1.255,9.067,6.208,6.001,9.922c0.165,1.359,0.257,2.726,0.376,4.12c0.006,0.069,0.016,0.163,0.027,0.263
		c15.581-1.813,31.482-2.8,47.175-3.929c0.22-2.2,0.746-4.256,1.992-6.12c-0.049-2.175,1.166-4.451,3.498-5.083
		c7.757-2.105,18.454-3.602,25.99-0.198c6.201,2.801,6.616,7.284,7.575,12.461c5.531,0.164,10.245-0.365,12.012-6.996
		c2.365-8.874,1.676-17.925,3.803-26.749c-0.311-0.439-0.535-0.93-0.627-1.463c-1.917-11.009-1.234-22.998-0.337-34.67
		c-5.563,4.474-14.904,4.225-21.655,4.464c-9.223,0.326-19.411,0.816-28.488-1.065c-3.705-0.768-3.773-6.842,0-7.558
		c7.816-1.482,16.044-0.19,23.97-0.198c8.182-0.008,17.008-3.179,24.868-2.387c0.668,0.067,1.27,0.31,1.781,0.657
		c0.277-3.549,0.536-7.049,0.705-10.457c0.011-0.233,0.029-0.466,0.041-0.699c-1.184,0.475-2.666,0.802-4.518,0.865
		C1043.555,377.977,1006.356,377.309,969.517,377.322z M978.806,390.058c13.964-0.604,27.866-0.855,41.822,0.151
		c4.503,0.324,4.495,6.67,0,6.994c-13.955,1.006-27.857,0.755-41.822,0.151C974.107,397.15,974.115,390.261,978.806,390.058z
		 M846.06,397.378c8.328-9.838,30.593-8.8,42.223-8.771c24.375,0.061,49.258-3.6,73.596-1.053c5.352,0.56,5.341,7.761,0,8.32
		c-21.821,2.284-45.415,0.628-67.284-0.873c-7.438-0.51-15.331-0.747-22.761-0.211c-8.896,0.641-14.329,3.338-21.827,7.701
		C846.642,404.449,843.765,400.089,846.06,397.378z M1069.42,432.966c4.578,0.433,4.568,6.682,0,7.114
		c-36.001,3.407-73.139,1.693-109.273,1.677c-18.282-0.008-36.564,0-54.846-0.085c-17.526-0.081-36.829,1.918-54.061-1.137
		c-3.973-0.704-3.97-7.319,0-8.023c17.262-3.061,36.497-1.056,54.061-1.137c18.282-0.085,36.564-0.077,54.846-0.085
		C996.279,431.272,1033.42,429.559,1069.42,432.966z"/>
	<path d="M791.604,473.551c4.192-0.385,8.401-0.569,12.616-0.67c-0.09-1.03-0.155-2.063-0.212-3.097
		c-2.649,1.46-5.789-2.253-4.496-5.168c8.145-18.371,6.535-35.986,3.522-55.338c-1.406-9.031-5.128-23.829,1.229-31.896
		c-109.875,0.044-219.751,0.092-329.626,0.015c-64.506-0.045-129.011-0.289-193.517-0.267c-64.303,0.022-128.653-1.641-192.94-1.263
		c-3.213,1.169-7.203,0.155-8.262-4.104c-1.309-5.262-2.141-10.633-2.665-16.057c-10.116,10.129-11.301,26.249-11.786,39.924
		c-0.204,5.771-0.502,12.667,4.926,16.175c4.359,2.817,10.382,2.862,15.388,2.944c9.745,0.158,19.534-1.392,29.262-0.629
		c9.078,0.712,16.826,4.783,24.02,10.239c1.146,0.869,4.484,2.847,5.041,3.223c27.037,18.213,38.538,53.655,42.63,84.613
		c2.217,16.772,2.632,34.653-3.46,50.712c-6.274,16.541-18.776,31.026-29.476,44.863c-24.607,31.82-47.192,65.823-62.28,103.297
		c-7.565,18.788-13.383,38.658-18.315,58.29c-0.913,3.636-1.672,7.291-2.373,10.956c3.644-1.157,7.261-2.395,10.809-3.822
		c4.167-1.676,8.426-3.61,12.169-6.12c3.025-2.028,5.091-4.14,8.732-4.868c0.49-0.098,0.967-0.08,1.43-0.012
		c7.227-19.044,15.492-37.669,24.218-56.13c12.041-25.474,25.389-52.097,45.435-72.302c2.91-2.933,8.081,0.924,5.776,4.457
		c-31.625,48.468-56.996,102.755-73.886,158.129c-9.208,30.189-16.335,61.454-18.992,92.946c-0.608,7.211-0.905,14.434-1.044,21.662
		c0.8,1.354,0.884,3.268-0.07,4.576c-0.245,23.803,1.009,47.65-1.04,71.337c-0.294,3.401,3.808,2.708,8.008-0.92
		c6.041-5.218,12.265-6.72,20.2-7.622c11.558-1.315,24.57-2.355,36.154-0.897c11.478,1.444,22.204,3.071,33.854,2.876
		c13.015-0.218,26.04-0.728,39.052-1.094c26.933-0.756,53.304-3.485,79.998-6.858c1.666-0.211,3.408-0.382,5.172-0.568
		c0.207-14.326,4.671-27.268,8.332-40.943c3.89-14.532,6.157-29.496,9.433-44.176c3.314-14.851,7.388-29.73,11.357-44.434
		c3.962-14.68,8.076-29.195,13.578-43.383c1.413-3.644,7.322-2.092,5.93,1.635c-10.384,27.808-17.269,55.703-22.804,84.758
		c-2.718,14.267-6.126,28.408-8.776,42.684c-2.448,13.187-5.379,27.112-5.124,40.61c0.161,0.283,0.295,0.574,0.404,0.874
		c1.9-0.684,3.702-1.568,5.332-2.756c7.884-5.741,10.309-16.237,10.954-25.336c1.652-23.326,7.906-45.513,14.377-67.957
		c13.68-47.446,28.856-94.453,43.531-141.597c6.539-21.008,13.775-41.965,21.334-62.631c-2.281,0.155-4.569,0.232-6.885,0.213
		c-3.031-0.026-6.19,0.153-9.126-0.488c-10.169,28.615-16.814,58.313-26.935,86.912c-1.485,4.197-7.432,2.516-6.628-1.827
		c5.655-30.553,14.911-60.861,25.984-89.866c0.696-1.823,2.183-2.719,3.733-2.905c3.96-1.792,7.736-1.085,12.024-0.935
		c3.872,0.135,7.75,0.06,11.622-0.11c5.597-11.16,13.999-20.344,24.793-26.499c-22.94,0-27.126,15.284-27.705,16.017
		c-3.32,4.198-10.429-1.383-7.386-5.699c17.541-24.876-10.088-61.937,11.059-84.788c16.64-17.981,40.59,4.554,60.18,2.107
		c1.628-28.09,14.107-56.937,36.067-71.34c15.811-10.37,33.945-3.812,35.735,15.537c0.891,9.631-1.191,19.298-1.185,28.938
		c0.007,10.123,1.005,20.23,3.821,29.981c4.987,17.269,27.051,43.091,48.281,36.119c1.484-0.487,2.392-1.269,3.073-1.904
		c-0.81-0.592-1.587-1.387-2.329-1.982c-7.639-6.125-15.093-11.946-21.154-19.756c-20.369-26.25-17.246-58.93-5.778-88.089
		c-5.447,0.092-10.894,0.128-16.339-0.025c-4.831-0.135-4.794-7.256,0-7.476c7.094-0.324,14.154-0.874,21.207-1.456
		c1.054-0.552,2.269-0.599,3.44-0.282c12.323-1.029,24.633-2.077,37.063-2.154c17.637-0.109,35.295-0.302,52.884-1.736
		c11.716-0.955,23.117-3.516,34.744-5.081c9.607-1.293,18.262-0.679,25.46,2.611c10.344-0.989,21.338-1.617,31.361,0.12
		c3.714,0.643,3.711,6.856,0,7.5c-6.56,1.137-13.539,1.246-20.481,0.92c2.18,2.712,4.083,5.917,5.642,9.727
		c6.429,15.716,6.152,33.813,4.533,50.423c-1.645,16.875-4.946,33.705-10.096,49.867c-3.127,9.811-7.327,21.995-14.921,29.375
		c-12.537,12.184-37.85,7.548-53.585,8.629c-27.002,1.854-53.878,2.3-80.922,3.106c-23.321,0.695-46.914,2.503-70.185-0.269
		c-20.17-2.402-32.326-12.261-40.13-30.852c-0.015,0.219-0.027,0.439-0.042,0.658c-0.531,7.735-0.634,17.025-3.4,24.617
		c7.57,1.485,14.894,4.5,21.605,8.841c7.119,4.605,13.573,9.905,21.847,12.35c10.209,3.017,21.601,3.288,32.177,3.776
		c44.298,2.044,88.38-4.441,132.612-5.385c20.706-0.442,43.326,4.703,63.58-0.726c10.306-2.762,16.961-8.224,17.278-19.292
		c0.193-6.738-4.056-12.239-5.353-18.743c-2.4-12.037-0.045-25.139,1.914-37.064c2.391-14.548,5.947-28.927,9.709-43.173
		c2.687-10.175,4.722-22.174,10.214-31.229c5.08-8.376,14.275-12.619,22.497-17.726c-6.228-0.067-12.454-0.2-18.645-0.768
		C786.716,480.699,786.725,473.998,791.604,473.551z M135.954,415.794c-13.098-9.199-25.601-5-40.383-5.526
		c-4.078-0.145-4.92-5.952-0.962-7.105c14.449-4.21,36.071-7.912,47.19,5.056C145.15,412.127,140.695,419.123,135.954,415.794z
		 M145.312,656.313c-13.721,28.377-36.519,50.615-46.61,81.071c-1.723,5.2-9.836,3.038-8.255-2.276
		c9.172-30.843,28.873-58.614,49.515-82.923C142.634,649.039,146.881,653.069,145.312,656.313z M187.361,407.4
		c0.13-0.6,0.324-1.194,0.58-1.765c0.81-1.808,3.14-2.876,5.013-2.876c1.089,0,2.097,0.315,2.974,0.853
		c-0.014-0.018-0.028-0.037-0.042-0.055c0.212,0.141,0.372,0.305,0.562,0.454c0.057,0.044,0.116,0.085,0.171,0.132
		c0.409,0.283,0.795,0.583,1.146,0.907c1.832,0.869,3.011,2.918,3.066,4.902c0,0,0,0.001,0,0.001
		c0.038,1.383-0.602,2.796-1.602,3.823c0.005,0.003,0.01,0.006,0.014,0.008c-0.03,0.027-0.061,0.051-0.091,0.078
		c-0.097,0.096-0.205,0.177-0.309,0.265c-1.784,1.518-3.86,2.47-6.275,1.768c-0.28-0.082-0.547-0.185-0.803-0.304
		c-0.333-0.047-0.651-0.111-0.952-0.196c0.001,0.001,0.001,0.002,0.002,0.003c-0.008-0.001-0.023-0.008-0.031-0.01
		c-0.083-0.024-0.168-0.052-0.25-0.08c-0.16-0.06-0.339-0.138-0.52-0.219c-0.081-0.038-0.164-0.067-0.245-0.111
		c-0.139-0.064-0.264-0.122-0.347-0.157c-1.738-0.749-2.758-3.033-2.758-4.808C186.665,409.035,186.927,408.169,187.361,407.4z
		 M184.164,605.691c4.615-13.838,12.676-25.745,18.775-38.911c6.981-15.069,8.905-30.728,8.965-47.187
		c0.056-15.443-1.211-30.009-7.858-44.175c-5.695-12.135-14.186-22.788-22.837-32.924c-3.493-4.093,2.313-10.044,5.968-5.968
		c10.088,11.246,19.611,23.078,26.332,36.697c6.755,13.687,8.749,27.731,9.183,42.836c0.495,17.256-0.438,34.531-6.655,50.807
		c-5.943,15.557-14.473,29.963-24.919,42.873C188.484,612.993,182.899,609.485,184.164,605.691z M369.964,630.965
		c-12.812,60.137-31.198,119.37-48.907,178.198c-9.098,30.225-18.394,60.404-28.394,90.344c-4.844,14.502-8.703,32.775-17.767,45.41
		c-1.824,2.543-4.49,3.317-6.97,2.97c-5.593,4.334-12.647,5.682-19.997,5.793c-11.748,0.178-23.213-1.726-34.985-0.738
		c-15.682,1.316-31.402,1.638-47.133,1.732c-18.589,0.111-44.163,2.254-58.814-11.821c-15.659-15.044-5.052-40.592-1.402-58.389
		c5.959-29.052,10.759-57.213,22.409-84.713c11.234-26.52,24.25-52.1,35.608-78.544c4.973-11.578,10.847-22.28,19.703-31.36
		c9.87-10.12,17.803-20.777,24.447-33.269c6.14-11.545,11.265-23.59,17.194-35.24c3.743-7.353,9.629-22.899,18.038-25.915
		c7.087-2.542,16.04-2.693,23.438-3.726c27.827-3.884,60.903-9.629,88.427-1.362c9.621,2.89,18.477,9.034,18.43,20.044
		C373.262,617.191,371.375,624.339,369.964,630.965z M414.399,546.523c-7.945,4.065-16.419,4.914-25.188,5.931
		c-13.954,1.619-28.012,2.355-42.058,2.403c-17.237,0.059-37.607,1.114-54.396-3.68c-12.565-3.588-22.533-15.109-14.311-27.98
		c1.958-3.066,7.373-2.051,7.19,1.948c-0.223,4.875-1.4,9.65,2.744,13.15c3.56,3.008,9.623,3.732,14.053,4.298
		c11.244,1.438,22.982,1.227,34.299,1.44c19.28,0.363,38.696-0.531,57.8-3.232c5.477-0.775,30.98-7.097,21.783-15.766
		c-2.789-2.629,0.1-8.384,3.96-6.802C437.682,525.37,426.396,540.385,414.399,546.523z M432.506,488.453
		c-6.828,23.93-40.374,29.519-61.473,29.261c-14.958-0.183-29.883-1.639-44.79-2.746c-11.811-0.877-23.357-0.907-34.888-4.005
		c-8.934-2.401-18.124-7.289-21.104-16.733c-2.953-9.359,0.792-21.553,9.381-26.525c4.074-2.358,8.979,3.597,5.151,6.676
		c-8.047,6.473-7.545,19.001,0.921,24.604c7.297,4.83,15.789,4.966,24.2,5.556c17.334,1.217,34.88,4.351,52.225,4.532
		c18.036,0.189,45.426-0.267,57.98-15.782c10.387-12.837,1.556-30.93-14.857-29.465c-4.938,0.441-6.041-7.981-1.17-8.645
		C423.747,452.501,438.041,469.055,432.506,488.453z M466.587,542.193c-0.763,2.586-1.9,5.074-4.327,6.502
		c-2.171,1.278-4.716,1.271-7.146,1.134c-3.654-0.206-7-3.656-5.728-7.52c0.365-1.108,0.833-2.084,1.507-2.959
		c0.522-2.299,2.087-4.372,4.362-5.557c1.617-0.842,3.084-1.224,4.874-0.983c1.62,0.218,3.137,0.898,4.326,2.047
		C466.497,536.83,467.414,539.387,466.587,542.193z M536.403,471.302c-10.518,4.625-22.025,6.321-31.366,13.452
		c-11.477,8.762-17.771,21.624-23.765,34.372c-1.861,3.958-8.566,1.09-7.053-2.973c5.502-14.773,11.321-29.128,23.934-39.322
		c10.242-8.277,23.588-11.367,36.545-11.82C537.877,464.9,539.529,469.928,536.403,471.302z M529.67,436.966
		c-0.58,0.104-1.109,0.088-1.591-0.007c-0.373,0.383-0.859,0.662-1.461,0.77c-18.592,3.336-38.918,1.204-57.767,1.185
		c-20.226-0.02-40.452-0.04-60.678-0.061c-20.226-0.02-40.452-0.041-60.678-0.061c-19.863-0.02-39.946,0.82-59.745-0.975
		c-0.844-0.077-1.512-0.375-2.018-0.797c-4.34-0.659-8.374-2.458-11.726-5.884c-9.641-9.852-10.047-28.94-1.082-39.313
		c1.101-1.274,2.427-1.533,3.618-1.186c0.368-0.152,0.779-0.257,1.251-0.278c41.655-1.857,83.647-0.941,125.343-0.814
		c38.599,0.118,125.705,0.643,126.089,3.147c6.014,7.422,9.83,12.947,9.801,23.742C539.008,423.434,538.479,435.387,529.67,436.966z
		 M580.756,467.512c-7.835,2.677-18.352-0.016-20.133-9.076c-1.617-8.227,5.51-17.294,13.907-17.655
		c1.094-0.047,7.942,0.452,10.637,1.391c3.522,1.227,5.812,4.064,6.532,7.693C593.22,457.536,587.905,465.07,580.756,467.512z
		 M641.954,408.811c-3.659,8.442-0.994,17.908-3.515,26.594c-0.92,3.171-5.377,3.075-6.337,0c-3.139-10.06-2.564-21.602,2.46-30.915
		C637.243,399.519,644.084,403.894,641.954,408.811z M678.251,443.12c-1.018-0.016-1.849-0.423-2.46-1.039
		c-13.793,0.992-26.633-5.898-28.617-20.995c-3.886-29.559,34.213-50.226,58.012-32.956
		C730.085,406.199,702.728,443.496,678.251,443.12z M760.367,456.025c-9.907,5.93-22.825,1.983-26.661-9.126
		c-3.755-10.87,2.736-23.261,14.167-25.639c0.315-0.066,0.614-0.08,0.904-0.074C769.368,411.136,776.936,446.108,760.367,456.025z"
		/>
	<path d="M605.838,602.321C606.332,602.93,607.369,603.19,605.838,602.321L605.838,602.321z"/>
	<path d="M750.793,427.328c-0.091,0.071-0.171,0.147-0.272,0.213c-5.775,3.794-11.549,9.28-8.313,16.827
		c2.565,5.981,10.238,8.04,15.775,4.803c4.683-2.738,6.182-9.179,5.293-14.264C762.121,428.305,756.725,426.713,750.793,427.328z"/>
	<path d="M1095.87,326.336c0.282,2.464,0.364,4.981,0.369,7.474c6.333-0.113,12.63-0.84,18.985-0.42
		c4.634,0.306,4.512,6.655,0,7.114c-6.417,0.654-12.656,1.722-19.052,1.782c-0.076,10.03-0.149,20.08-0.552,30.094
		c-0.46,11.422-1.069,22.842-1.627,34.26c-0.185,3.79-0.651,8.88-0.755,13.138c1.032,0.09,2.016,0.402,2.875,0.888
		c5.959-0.945,12.11-0.878,18.116-1.036c5.336-0.14,10.647-0.839,15.737,0.142c-0.147-2.323-0.068-4.678-0.066-6.994
		c0.004-3.57-0.151-6.748,0.957-9.937c-1.221-11.287,0.689-23.745,1.23-34.452c0.326-6.459,0.663-12.916,0.662-19.384
		c-0.624-1.488-0.692-3.237,0.097-4.739c0.2-5.881,0.486-12.14-1.361-17.558C1119.624,326.371,1107.736,326.422,1095.87,326.336z"/>
	<path d="M145.301,569.663c-3.84,5.564-8.887,11.815-10.438,18.524c-1.525,6.596,2.201,8.666,8.307,10.108
		c0.879,0.208,1.596,0.546,2.225,0.947c7.72-9.965,15.277-20.078,21.727-30.877c9.787-16.384,10.195-35.298,8.187-53.79
		c-0.622-5.732-1.505-11.663-2.679-17.634c0.325,12.986-1.612,26.068-6.318,38.049C161.316,547.708,153.003,558.503,145.301,569.663
		z"/>
	<path d="M1149.455,349.515c-0.26-1.354-1.412-4.115-0.915-3.954c-1.416-0.458-4.795,2.388-7.053,4.311
		c0.005,3.938-0.042,7.873-0.226,11.834c-0.567,12.182-1.545,24.429-1.664,36.651c2.334,0.315,3.892,0.408,6.064-2.6
		c2.536-3.511,2.72-8.266,2.97-12.484c0.33-5.567,0.356-11.13,0.756-16.705C1149.782,361.053,1150.507,354.993,1149.455,349.515z"/>
	<path d="M1083.979,248.512c-17.419,0.113-36.412,2.095-53.575-0.893c-4.232-0.737-4.229-7.81,0-8.546
		c17.193-2.993,36.121-1.005,53.575-0.893c17.965,0.116,35.992,0.145,53.956,0.515c-0.432-4.391-1.172-8.833-2.425-12.975
		c-13.965,1.305-28.475,0.277-42.441,0.264c-15.351-0.014-30.702-0.029-46.054-0.043c-15.351-0.014-30.704,0.051-46.054-0.061
		c-15.211-0.11-30.939,0.68-46.054-1.066c-4.342-0.502-4.333-6.252,0-6.752c15.107-1.745,30.849-0.961,46.054-1.066
		c15.35-0.106,30.703-0.046,46.054-0.061c1.963-0.002,4.951-1.002,4.692-1.635c-2.512-0.135-5.121-1.918-5.125-4.816
		c0-0.577-22.803-0.938-34.017-0.853c-13.44,0.103-26.88,0.227-40.32,0.308c-29.372,0.179-58.748,0.055-88.12,0.054
		c-30.012-0.001-60.024-0.151-90.036-0.31c-14.049-0.074-28.095-0.425-42.145-0.549c-11.887-0.105-23.937,0.385-35.868-0.083
		c-0.565,10.018,0.606,20.404,1.616,30.788c0.598-0.389,1.327-0.659,2.217-0.715c25.545-1.622,51.577-0.476,77.171-0.243
		c25.67,0.234,51.563-0.518,77.171,1.268c4.115,0.287,4.107,6.104,0,6.391c-25.609,1.786-51.5,1.035-77.171,1.268
		c-25.593,0.233-51.628,1.378-77.171-0.243c-0.589-0.037-1.101-0.175-1.561-0.367c0.867,11.102,0.985,22.091-2.071,32.499
		c-5.858,19.953-29.314,19.482-46.717,21.31c-25.743,2.704-51.96,2.825-77.81,1.982c-9.259-0.302-18.574-0.458-27.824-0.915
		c-6.594-0.326-14.326-0.983-18.819-6.405c-0.341-0.411-0.578-0.865-0.75-1.337c-0.361-0.431-0.636-0.95-0.754-1.578
		c-2.623-13.891-1.102-29.198-1.211-43.309c-0.096-12.504-1.612-26.092,0.044-38.667c-0.016-0.222-0.032-0.446-0.049-0.669
		c-14.513,0.956-29.451-0.121-43.976-0.145c-14.524-0.024-29.049-0.038-43.573-0.051c-30.625-0.027-61.25-0.232-91.875-0.109
		c-57.341,0.23-109.209,2.561-180.317-0.372c0.504,5.623,1.315,11.275,1.007,16.86c-0.028,0.514-0.16,1.045-0.36,1.558
		c2.97,0.041,5.927,0.063,8.865,0.052c5.79-0.022,5.78,9.006,0,8.983c-24.193-0.094-49.677,2.03-73.686-0.995
		c-4.495-0.566-4.485-6.428,0-6.994c5.863-0.739,11.815-1.167,17.814-1.399c-0.007-0.062-0.024-0.12-0.03-0.182
		c-0.279-3.274-0.37-6.607-0.272-9.939c-4.874,0.773-33.432-0.611-41.25-1.814c-0.837,1.189-1.493,2.567-1.926,4.169
		c-1.72,6.352-1.241,13.439-1.378,20.033c4.519-0.172,9.065,0.125,13.598,0.323c7.046,0.307,14.54-0.028,21.383,1.734
		c3.463,0.892,3.485,6.157,0,7.034c-6.895,1.736-14.327,1.069-21.383,0.738c-4.63-0.217-9.32-0.195-13.958-0.551
		c-0.186,3.93-0.398,7.858-0.611,11.786c6.282-0.284,12.916-0.553,18.968,1.111c3.272,0.899,3.269,5.729,0,6.627
		c-6.204,1.705-13.012,1.381-19.434,1.09c-0.009,0.18-0.019,0.36-0.028,0.539c-0.146,2.931-0.266,5.86-0.391,8.79
		c4.947-1.288,10.702-0.914,15.682-1.248c6.565-0.44,13.657-2.039,20.185-1.528c3.943,0.309,5.404,5.175,2.008,7.415
		c-5.586,3.684-13.333,3.99-19.85,4.343c-5.686,0.308-12.658,0.893-18.346-0.709c-0.264,7.549-0.462,15.097-0.535,22.651
		c25.671,0.341,51.349,0.153,77.03-0.2c0.086-9.758,4.426-19.953,6.601-29.402c2.434-10.574,4.637-21.176,6.375-31.885
		c-3.488-0.092-6.978-0.152-10.465-0.253c-4.933-0.144-4.926-7.515,0-7.657c21.129-0.608,42.264-0.513,63.401-0.499
		c56.081,0.038,112.151,1.026,168.23,1.35c44.259,0.256,88.595-0.366,132.816,1.593c4.35,0.192,4.343,6.562,0,6.752
		c-21.148,0.929-42.235,0.853-63.401,0.721c-43.922-0.274-87.874-0.191-131.826-0.245c0.52,0.745,0.776,1.704,0.557,2.821
		c-3.745,19.059-10.371,37.445-16.422,55.861c59.742,0.878,119.409,1.621,179.181,1.471c65.959-0.165,131.882-1.441,197.846-1.019
		c32.948,0.211,66.768,2.548,99.639,0.141c32.765-2.399,64.907-1.136,97.713-0.249c32.444,0.877,64.896,0.837,97.349,1.157
		c31.924,0.315,64.143-1.031,95.992,1.265c4.386,0.316,4.378,6.497,0,6.813c-36.24,2.612-73.009,1.086-109.34,1.401
		c-36.326,0.315-72.602,0.541-108.909,1.879c-16.656,0.614-33.157,1.203-49.815,0.481c-16.673-0.723-33.104-1.864-49.815-1.815
		c-32.596,0.095-65.19,0.351-97.786,0.448c-65.958,0.198-131.887-1.211-197.846-1.154c-32.782,0.028-65.669-0.974-98.431,0.256
		c-17.168,0.644-34.355,1.056-51.544,1.31c-0.01,0.206-0.03,0.415-0.079,0.635c-3.375,14.971-7.455,30.079-12.607,44.585
		c126.755,0.027,253.51-0.345,380.265-0.299c64.62,0.024,129.24,0.047,193.86,0.071c32.506,0.012,65.012,0.024,97.518,0.035
		c31.772,0.012,63.813-0.528,95.566,0.604c2.055,0.073,3.705,0.53,4.972,1.194c0.564-8.631,1.264-17.249,1.671-25.896
		c0.064-1.354,0.18-2.766,0.31-4.2c-0.037-0.517,0.008-1.028,0.138-1.515c0.427-4.554,0.889-9.293,0.317-13.48
		c-0.323-2.362,1.247-4.053,3.015-4.486c0.649-0.488,1.489-0.793,2.523-0.803c13.252-0.125,26.539-0.007,39.788-0.43
		c1.285-9.496,4.802-18.651,5-28.541c0.228-11.424,0.412-22.889,0.427-34.315c0.003-2.01-0.01-4.176-0.065-6.427
		C1120.326,248.368,1102.123,248.394,1083.979,248.512z M501.453,230.406c0.038,1.383-0.602,2.796-1.602,3.823
		c0.005,0.003,0.01,0.006,0.015,0.008c-0.03,0.027-0.062,0.051-0.091,0.078c-0.097,0.096-0.205,0.177-0.309,0.265
		c-1.783,1.518-3.86,2.47-6.275,1.768c-0.28-0.082-0.547-0.185-0.803-0.304c-0.333-0.047-0.651-0.111-0.952-0.196
		c0,0.001,0.001,0.002,0.002,0.003c-0.008-0.001-0.023-0.008-0.031-0.01c-0.083-0.024-0.168-0.052-0.25-0.08
		c-0.16-0.06-0.339-0.138-0.52-0.219c-0.081-0.038-0.163-0.067-0.245-0.111c-0.139-0.064-0.264-0.122-0.347-0.157
		c-1.738-0.749-2.758-3.033-2.758-4.808c0-0.977,0.263-1.843,0.696-2.612c0.13-0.6,0.324-1.194,0.58-1.765
		c0.81-1.808,3.14-2.876,5.013-2.876c1.089,0,2.096,0.315,2.974,0.853c-0.014-0.018-0.028-0.037-0.042-0.055
		c0.212,0.142,0.372,0.305,0.562,0.454c0.057,0.044,0.116,0.085,0.171,0.132c0.409,0.283,0.795,0.583,1.146,0.907
		c1.832,0.869,3.012,2.918,3.066,4.902C501.453,230.405,501.453,230.406,501.453,230.406z M788.617,271.284
		c-17.832,1.875-35.89,1.218-53.771,0.271c-5.553-0.294-5.543-8.328,0-8.622c17.881-0.947,35.938-1.603,53.771,0.271
		C793.813,263.751,793.803,270.739,788.617,271.284z M922.946,246.602c-10.231,1.408-20.472,0.962-30.77,0.784
		c-5.206-0.09-5.198-7.989,0-8.079c10.298-0.178,20.54-0.624,30.77,0.784C926.171,240.534,926.169,246.158,922.946,246.602z
		 M926.205,302.918c-3.344-3.989,1.633-8.776,5.627-5.627c6.842,5.394,14.731-20.655,15.605-24.364
		c1.893-8.032,5.571-18.09,5.991-26.928c-3.158,0.021-6.316,0.031-9.474,0.058c-6.062,0.051-6.052-9.437,0-9.405
		c4.629,0.024,9.224-0.003,13.838,0.396c2.654,0.229,5.355,2.695,4.298,5.643c-2.159,6.022-2.522,12.682-3.949,18.937
		c-1.97,8.64-5.139,16.905-8.141,25.225C946.861,295.557,938.055,317.055,926.205,302.918z M959.065,300.927
		c-3.344-3.989,1.633-8.776,5.627-5.627c6.842,5.394,14.731-20.655,15.605-24.364c1.893-8.032,5.571-18.089,5.991-26.928
		c-3.158,0.021-6.315,0.031-9.473,0.058c-6.062,0.051-6.052-9.437,0-9.405c4.629,0.024,9.224-0.003,13.838,0.395
		c2.654,0.229,5.355,2.695,4.298,5.643c-2.159,6.022-2.522,12.682-3.949,18.937c-1.97,8.64-5.139,16.905-8.141,25.225
		C979.721,293.565,970.915,315.063,959.065,300.927z M1025.819,241.694c-2.159,6.022-2.522,12.682-3.949,18.937
		c-1.97,8.64-5.139,16.905-8.141,25.225c-3.141,8.705-11.947,30.203-23.797,16.066c-3.344-3.989,1.633-8.776,5.627-5.627
		c6.842,5.394,14.731-20.655,15.605-24.364c1.893-8.032,5.571-18.09,5.991-26.928c-3.158,0.021-6.315,0.031-9.473,0.058
		c-6.062,0.051-6.052-9.437,0-9.405c4.629,0.024,9.224-0.003,13.838,0.396C1024.175,236.281,1026.876,238.747,1025.819,241.694z
		 M772.685,341.107c-28.329,1.103-56.835-0.23-85.188-0.241c-29.259-0.012-58.517,0-87.776,0c-58.422,0-117.201,1.987-175.551-0.663
		c-4.194-0.19-4.187-6.321,0-6.511c58.349-2.649,117.129-0.663,175.551-0.663c29.258,0,58.517,0.008,87.776,0
		c28.354-0.008,56.858-1.344,85.188-0.241C778.045,332.996,778.036,340.899,772.685,341.107z M1041.505,343.423
		c-11.672,1.861-23.802,0.912-35.598,0.867c-11.545-0.044-23.091-0.101-34.636-0.152c-24.373-0.109-48.747-0.073-73.121-0.073
		c-5.323,0-5.314-8.26,0-8.26c24.374,0,48.747,0.037,73.121-0.073c12.187-0.055,24.374-0.115,36.561-0.159
		c11.175-0.041,22.612-0.89,33.673,0.874C1044.96,336.997,1044.958,342.872,1041.505,343.423z"/>
	<path d="M578.512,449.121c-1.018-0.216-10.961,2.971-9.668,7.697c1.185,4.331,7.769,4.215,10.961,2.533
		c1.901-1.002,3.433-2.701,4.226-4.705c0.585-1.477,0.559-2.889,0.049-3.497C582.64,449.431,580.56,449.554,578.512,449.121z"/>
	<path d="M494.346,225.136c-0.128-0.017-0.256-0.034-0.384-0.052l0.393,0.083c-0.022-0.015-0.032-0.027-0.007-0.028
		C494.347,225.139,494.346,225.137,494.346,225.136z"/>
</g>
</svg>
